<svg width="20" height="19" viewBox="0 0 20 19" fill="none" xmlns="http://www.w3.org/2000/svg">
<path d="M13.7546 6.46632C15.2044 6.46632 16.5948 7.04223 17.6199 8.06736C18.645 9.0925 19.221 10.4829 19.221 11.9326V18.31H15.5768V11.9326C15.5768 11.4494 15.3848 10.9859 15.0431 10.6442C14.7014 10.3025 14.2379 10.1105 13.7546 10.1105C13.2714 10.1105 12.8079 10.3025 12.4662 10.6442C12.1245 10.9859 11.9325 11.4494 11.9325 11.9326V18.31H8.28833V11.9326C8.28833 10.4829 8.86424 9.0925 9.88938 8.06736C10.9145 7.04223 12.3049 6.46632 13.7546 6.46632V6.46632Z" stroke="#F2F2F2" stroke-width="0.8" stroke-linecap="round" stroke-linejoin="round"/>
<path d="M4.64421 7.37737H1V18.31H4.64421V7.37737Z" stroke="#F2F2F2" stroke-width="0.8" stroke-linecap="round" stroke-linejoin="round"/>
<path d="M2.82211 4.64421C3.82843 4.64421 4.64421 3.82843 4.64421 2.82211C4.64421 1.81578 3.82843 1 2.82211 1C1.81578 1 1 1.81578 1 2.82211C1 3.82843 1.81578 4.64421 2.82211 4.64421Z" stroke="#F2F2F2" stroke-width="0.8" stroke-linecap="round" stroke-linejoin="round"/>
</svg>
